<svg width="46" height="47" viewBox="0 0 46 47" fill="none" xmlns="http://www.w3.org/2000/svg">
<path d="M26.488 27.564V29.5H20.056V27.564H22.264V20.172C22.1467 20.332 21.9387 20.524 21.64 20.748C21.3413 20.9613 21.0107 21.148 20.648 21.308C20.296 21.468 19.976 21.548 19.688 21.548V19.564C19.9653 19.564 20.2533 19.4893 20.552 19.34C20.8507 19.1907 21.128 19.02 21.384 18.828C21.64 18.6253 21.848 18.4493 22.008 18.3C22.1787 18.14 22.264 18.0493 22.264 18.028H24.456V27.564H26.488Z" fill="#353535"/>
<rect x="0.5" y="1" width="45" height="45" rx="6.5" stroke="#353535"/>
</svg>
